<svg width="175" height="296" viewBox="0 0 175 296" fill="none" xmlns="http://www.w3.org/2000/svg">
<path d="M21.5695 89.6202C21.5531 89.6202 21.5448 89.6202 21.5283 89.6202L1.12966 88.8637C0.742287 88.8473 0.396128 88.6499 0.190081 88.321C-0.0159662 88.0004 -0.0489338 87.5892 0.0994202 87.2356C2.69561 81.1591 6.07479 75.4937 10.1298 70.3874C10.138 70.3709 10.1545 70.3545 10.1628 70.338C10.2205 70.264 11.5474 68.5126 14.0859 65.8073L14.4485 65.4209C20.9926 58.5385 35.1687 45.892 56.5399 38.582C57.0591 38.4011 57.636 38.6149 57.9245 39.0836C58.2047 39.5605 58.1223 40.1608 57.7185 40.539C57.6772 40.5719 53.8365 44.1241 50.1689 47.8408C49.1222 48.9508 48.1084 50.0691 47.0947 51.2367C47.0617 51.2779 47.0205 51.319 46.971 51.3519C46.8309 51.467 46.6908 51.5985 46.5425 51.7301L46.2293 52.059C45.9655 52.3633 45.6935 52.6675 45.4133 53.0046L45.2155 53.2431C39.1165 60.4873 30.4131 72.5335 23.4404 88.9048C23.2509 89.3489 22.8388 89.6038 22.3278 89.612C22.1547 89.6038 21.9899 89.5955 21.8333 89.5873C21.7426 89.612 21.6602 89.6202 21.5695 89.6202ZM2.93463 86.5943L21.3305 87.2768C21.4212 87.2521 21.5201 87.2439 21.6107 87.2439C28.6411 70.9876 37.3198 58.999 43.4105 51.7548L43.6248 51.4999C43.9215 51.1463 44.1935 50.8338 44.4737 50.5214L44.721 50.2418C44.754 50.2007 44.7869 50.1678 44.8281 50.1349L45.0012 49.9869C45.1331 49.8718 45.265 49.7484 45.3968 49.6415C46.4188 48.4739 47.4326 47.3556 48.4958 46.2291C49.6826 45.0204 50.8859 43.8363 51.9739 42.7838C34.0395 50.0691 21.9981 60.8902 16.1546 67.0243L15.8002 67.4025C13.6326 69.7131 12.3551 71.333 12.0914 71.6701C12.0749 71.703 12.0502 71.7277 12.0254 71.7606C8.40724 76.2912 5.35774 81.2742 2.93463 86.5943Z" fill="#E3EDFB"/>
<path d="M63.1581 213.7C62.8037 213.7 62.4575 213.544 62.235 213.248C60.908 211.513 59.8201 209.482 59.0042 207.204C58.9959 207.188 58.9877 207.163 58.9794 207.147C58.9382 207.048 58.9053 206.949 58.8805 206.851L58.7322 206.423C53.0288 191.071 59.886 173.138 60.1745 172.381C60.2075 172.307 60.2404 172.233 60.2817 172.168C66.1581 156.544 79.4688 148.634 92.3426 140.987L95.013 139.4C100.683 136.012 106.049 132.814 111.917 129.837C112.222 129.681 112.585 129.665 112.906 129.804C113.228 129.944 113.467 130.207 113.565 130.536C113.648 130.807 115.552 137.254 113.945 145.164C113.936 145.214 113.92 145.263 113.903 145.312C113.582 146.546 110.631 155.952 94.3454 164.29L93.9498 164.504C92.6393 165.17 91.6256 165.746 90.9085 166.231C85.9139 169.166 81.8095 172.168 78.3067 175.448C78.2242 175.522 78.1336 175.588 78.0264 175.638C76.4275 176.937 62.0372 189.254 63.6691 209.268C63.7268 209.375 63.7597 209.49 63.768 209.614C63.9411 211.25 64.246 212.146 64.246 212.154C64.4273 212.697 64.1965 213.289 63.6938 213.561C63.5372 213.651 63.3476 213.7 63.1581 213.7ZM61.1141 206.193C61.1306 206.226 61.147 206.267 61.1635 206.3C61.18 206.357 61.2047 206.415 61.2212 206.473C61.0399 185.908 76.6006 173.804 76.7654 173.672C76.8066 173.639 76.8396 173.615 76.8808 173.59C80.4743 170.243 84.6612 167.185 89.6722 164.249C90.414 163.739 91.4854 163.131 92.8783 162.432L93.2657 162.226C109.42 153.946 111.645 144.77 111.662 144.671C111.67 144.646 111.67 144.622 111.678 144.597C112.717 139.376 112.098 134.779 111.662 132.575C106.362 135.33 101.425 138.274 96.2163 141.382L93.5459 142.969C80.9605 150.443 67.9384 158.181 62.3916 173.187C62.3586 173.269 62.3256 173.352 62.2762 173.417C61.5262 175.473 55.8475 191.943 60.941 205.634L61.0399 205.93C61.0564 205.963 61.0811 206.045 61.1058 206.127C61.1058 206.16 61.1141 206.177 61.1141 206.193Z" fill="#E3EDFB"/>
<path d="M14.2003 187.454C11.4393 187.454 8.48871 186.031 6.36231 182.471C5.86779 181.64 5.44746 180.431 5.12602 178.886C5.11778 178.861 5.10954 178.828 5.1013 178.803C0.164408 161.486 11.4146 148.791 11.9009 148.256C12.214 147.911 12.7003 147.787 13.1454 147.935C13.5904 148.083 13.8954 148.478 13.9366 148.947L13.9613 149.292C14.1426 149.489 14.2498 149.753 14.258 150.04C14.258 150.172 14.7031 163.715 19.4257 176.641L19.4669 176.739C19.4999 176.813 19.5328 176.896 19.5493 176.978C19.7966 177.578 20.6949 179.922 20.4724 182.142C20.1675 184.905 18.8735 186.097 17.8433 186.607C16.7388 187.141 15.4861 187.454 14.2003 187.454ZM7.30188 177.973C7.34309 178.055 7.36782 178.145 7.3843 178.236C7.73046 179.954 8.10959 180.834 8.37333 181.278C10.7305 185.225 14.3075 185.743 16.8048 184.51C17.5465 184.14 17.9999 183.26 18.1482 181.887C18.3378 180.012 17.3652 177.8 17.357 177.784C17.324 177.718 17.2993 177.644 17.2828 177.57C17.2663 177.529 17.2416 177.471 17.2334 177.455C13.3597 166.88 12.2965 156.183 12.0162 151.964C9.19752 156.117 3.95568 165.943 7.30188 177.973Z" fill="#E3EDFB"/>
<path d="M152.392 111.739C151.238 111.739 150.167 111.492 149.285 111.114L149.169 111.057C149.161 111.057 149.12 111.032 149.12 111.032C149.071 111.007 149.029 110.991 148.988 110.958C148.675 110.793 148.395 110.604 148.156 110.407C148.147 110.399 148.139 110.399 148.139 110.391C147.661 109.979 147.422 109.593 147.381 109.519C147.356 109.478 147.332 109.429 147.315 109.379C146.697 108.368 146.483 107.151 146.672 105.778C146.672 105.728 146.697 105.589 146.73 105.457C146.746 105.383 146.763 105.301 146.779 105.21C146.788 105.186 146.796 105.153 146.804 105.128C147.2 103.763 148.395 102.02 148.724 101.559C148.741 101.535 148.757 101.502 148.782 101.477C153.9 94.2495 154.889 87.9262 155.021 84.7934L154.972 82.2361C154.972 81.7263 155.293 81.2741 155.788 81.1179C156.274 80.9616 156.81 81.1425 157.098 81.5619C157.263 81.7921 161.046 87.2766 161.442 95.006C161.458 95.08 161.466 95.154 161.466 95.2362C161.466 95.2362 161.466 95.4418 161.466 95.7871C161.491 96.8725 161.433 98.0319 161.293 99.1995C160.873 103.763 159.81 107.011 158.128 108.836C157.659 109.527 157.321 109.922 157.28 109.963C157.23 110.012 157.181 110.062 157.123 110.103C155.598 111.295 153.925 111.739 152.392 111.739ZM150.159 108.952L150.208 108.976C150.892 109.264 153.282 110.07 155.59 108.351C155.697 108.22 155.936 107.924 156.225 107.488C156.266 107.43 156.307 107.381 156.348 107.332C157.659 105.95 158.59 102.982 158.961 98.9693C159.093 97.8839 159.142 96.8314 159.126 95.82C159.126 95.6967 159.126 95.5898 159.126 95.5075C159.117 95.4582 159.109 95.4089 159.109 95.3513C158.969 91.9471 158.079 88.9787 157.189 86.7997C156.736 90.541 155.26 96.338 150.744 102.743C150.727 102.776 150.702 102.809 150.678 102.85C150.323 103.344 149.343 104.816 149.046 105.753L148.988 106.057C148.856 106.995 148.988 107.726 149.367 108.294C149.392 108.335 149.417 108.376 149.441 108.425C149.491 108.483 149.565 108.565 149.664 108.656C149.672 108.664 149.672 108.664 149.68 108.672C149.788 108.754 149.919 108.845 150.101 108.943C150.126 108.935 150.142 108.943 150.159 108.952Z" fill="#E3EDFB"/>
<path d="M147.027 29.274C145.379 29.274 143.829 28.6409 142.65 27.4897C141.455 26.3221 140.796 24.7598 140.78 23.0988C140.763 21.1747 141.637 19.3739 143.178 18.1652C143.45 17.9514 143.796 17.8692 144.134 17.9349C144.53 18.0172 145.016 18.1652 145.502 18.4036C145.395 18.0912 145.42 17.7376 145.585 17.4416C145.774 17.1044 146.12 16.8907 146.508 16.8578C146.714 16.8249 146.837 16.8167 146.969 16.8167C146.986 16.8167 147.002 16.8167 147.027 16.8167C150.456 16.8167 153.249 19.5795 153.282 23.0001C153.299 24.6693 152.664 26.2398 151.494 27.4239C150.324 28.6162 148.758 29.274 147.093 29.2905C147.06 29.274 147.043 29.274 147.027 29.274ZM144.192 20.3771C143.491 21.1089 143.104 22.0627 143.112 23.0741C143.12 24.1184 143.541 25.0969 144.282 25.8287C145.016 26.5523 145.988 26.947 147.027 26.947C147.035 26.947 147.052 26.947 147.06 26.947C148.107 26.9388 149.087 26.5194 149.821 25.7794C150.554 25.0311 150.95 24.0526 150.942 23.0083C150.925 21.2569 149.747 19.7768 148.14 19.2999C148.255 20.5744 147.942 21.6516 147.892 21.816C147.727 22.3341 147.225 22.6548 146.697 22.6301C146.153 22.589 145.716 22.1861 145.626 21.6516C145.519 21.0184 144.769 20.5991 144.192 20.3771Z" fill="#E3EDFB"/>
<path d="M124.057 296.001C123.974 296.001 123.892 295.993 123.801 295.977C102.512 291.281 71.564 263.053 64.8551 246.196C64.6821 245.761 64.7892 245.259 65.1271 244.93C65.465 244.601 65.9678 244.511 66.4046 244.7C66.6931 244.823 66.9651 244.955 67.2453 245.103C67.3195 245.136 67.3854 245.185 67.4431 245.234C67.575 245.341 80.8774 256.039 97.1139 261.598C98.8859 261.984 100.386 262.321 101.919 263.036C102.166 263.127 103.147 263.497 104.334 264.122C104.499 264.188 104.63 264.262 104.746 264.336C106.864 265.512 108.405 266.852 109.32 268.332C109.848 269.187 110.804 270.832 112.007 272.912C114.554 277.319 118.394 283.98 121.996 289.62C123.455 291.471 124.444 292.967 125.103 294.324C125.301 294.727 125.243 295.204 124.971 295.557C124.749 295.845 124.411 296.001 124.057 296.001ZM68.9761 249.288C77.4158 264.015 102.216 287.145 121.601 292.992C121.18 292.383 120.694 291.734 120.133 291.018C120.109 290.985 120.084 290.952 120.068 290.92C116.425 285.221 112.551 278.512 109.988 274.08C108.793 272.016 107.853 270.388 107.342 269.557C106.633 268.414 105.315 267.296 103.526 266.326C103.493 266.309 103.468 266.293 103.435 266.268C103.427 266.268 103.427 266.26 103.419 266.26C103.378 266.243 103.337 266.227 103.295 266.202C102.084 265.561 101.086 265.207 101.078 265.207C101.037 265.191 101.004 265.174 100.963 265.158C99.6277 264.525 98.2842 264.229 96.5864 263.859C96.5452 263.851 96.4545 263.826 96.4133 263.809C84.3719 259.706 73.9047 252.824 68.9761 249.288Z" fill="#E3EDFB"/>
<path d="M104.144 258.883C104.078 258.883 104.021 258.874 103.955 258.866C86.6797 256.029 72.9569 248.884 60.7589 236.361C33.7585 212.087 18.8737 182.831 16.5742 149.464C14.7527 123.052 21.5688 101.871 24.577 93.9933C33.1321 68.9799 48.7999 48.3821 69.8744 34.4776C77.2674 28.9848 97.4106 15.697 123.768 11.4459C132.216 6.57804 141.496 3.23141 152.145 1.24153C152.73 1.15108 153.34 1.06885 153.975 1.00307C154.857 0.756387 161.673 -0.986821 173.92 0.822169C174.25 0.871505 174.546 1.06063 174.728 1.33197C174.909 1.61155 174.967 1.94868 174.876 2.27758C174.785 2.59827 173.096 8.75705 168.967 15.697C170.318 14.3731 171.621 12.9424 172.478 11.635C172.741 11.2321 173.219 11.0265 173.689 11.1334C174.159 11.2321 174.522 11.6021 174.604 12.0708C174.695 12.6053 176.821 25.3833 170.046 39.1563C170.046 39.1563 170.046 39.1645 170.038 39.1645C168.958 41.952 167.706 44.1721 166.305 45.7591C165.859 47.5681 163.329 56.2924 154.379 62.4018L154.238 62.4923C153.892 62.7225 153.587 62.9034 153.282 63.0843L152.953 63.2816C149.697 65.0742 145.65 66.0609 142.815 66.5789C142.807 66.5789 142.799 66.5789 142.79 66.5789C142.782 66.5789 142.782 66.5789 142.774 66.5789C141.389 66.8256 140.483 66.9325 140.474 66.9325C140.425 66.9407 140.376 66.9407 140.334 66.9407C140.268 66.9407 140.202 66.9407 140.137 66.9325C138.777 67.0887 137.474 67.1627 136.238 67.1627C121.304 67.1627 114.463 56.5802 112.922 53.7844C113.243 54.6889 113.631 55.6181 114.092 56.5555C114.109 56.5966 114.125 56.6295 114.142 56.6706C114.529 57.5011 118.683 65.88 128.004 69.0128C129.315 69.5144 130.831 69.8598 132.554 70.0407L132.842 70.0653C133.576 70.1394 134.285 70.1805 134.994 70.1969C135.076 70.1969 135.15 70.2051 135.233 70.2134C135.282 70.2051 135.34 70.2051 135.389 70.2051C139.09 70.2133 142.906 69.6378 145.518 68.6099C148.065 67.615 150.299 66.1431 152.458 64.7206C155.054 63.0103 157.502 61.3986 160.387 60.5928C160.881 60.453 161.417 60.6586 161.697 61.1026C161.969 61.5466 161.92 62.114 161.574 62.5005C161.516 62.5663 155.903 68.8566 154.873 75.9363C154.733 76.8819 154.609 77.8276 154.486 78.7814C153.604 85.4253 152.689 92.2912 147.76 99.7657C147.744 99.7986 147.719 99.8314 147.694 99.8561C141.398 107.643 133.123 114.69 123.768 120.24C120.447 122.205 116.664 124.384 112.658 126.695C95.7952 136.389 74.8113 148.452 66.3057 157.834C60.5199 164.215 56.9182 172.142 55.5995 181.409C54.6847 188.201 54.6352 198.471 59.6133 208.741C59.8606 209.251 59.704 209.867 59.2424 210.196C58.7809 210.525 58.1462 210.476 57.7424 210.073C53.5143 205.863 49.7066 198.109 49.55 197.78C49.5335 197.739 49.517 197.698 49.5005 197.657C42.9317 184.986 39.4289 171.311 39.2806 170.727C39.2641 170.662 39.2558 170.596 39.2476 170.522C39.2311 170.259 39.2229 169.996 39.2146 169.741C39.2146 169.658 39.2064 169.576 39.2064 169.494C39.1981 169.453 39.1817 169.42 39.1734 169.379C30.7502 125.338 46.0719 95.5885 60.4045 78.3867C64.1711 73.8724 68.0695 69.9585 71.8113 66.62C58.888 76.5284 44.0361 92.7764 36.602 118.061C36.5525 118.226 32.1513 132.434 32.4316 150.623C32.4893 150.763 32.5222 150.911 32.5222 151.067C32.5222 151.462 32.8684 190.996 61.7397 217.695C70.5008 224.241 80.729 227.48 91.3116 227.069C93.3391 226.987 95.2677 226.765 97.2293 226.378C101.251 225.532 114.752 221.692 119.021 208.198C119.169 207.738 119.581 207.417 120.059 207.384C120.546 207.351 120.991 207.623 121.197 208.058C121.444 208.601 127.304 221.527 122.944 235.999C122.944 236.007 122.944 236.007 122.936 236.015C122.375 238.384 121.592 240.62 120.62 242.659C120.298 243.268 119.458 244.789 118.155 246.713C118.139 246.738 118.122 246.762 118.106 246.779L117.974 246.952C117.727 247.264 117.471 247.585 117.224 247.889C117.191 247.93 117.158 247.971 117.117 248.012C116.235 249.098 115.477 250.043 114.842 250.997C114.817 251.038 114.784 251.079 114.752 251.12C111.554 254.755 108.15 257.337 104.63 258.809C104.457 258.85 104.301 258.883 104.144 258.883ZM154.634 3.23141C154.552 3.2643 154.461 3.28075 154.362 3.29719C153.719 3.3712 153.093 3.45343 152.541 3.53565C142.123 5.49265 133.016 8.7735 124.757 13.5673C124.634 13.6413 124.493 13.6907 124.353 13.7071C98.3996 17.8431 78.5449 30.9418 71.2179 36.3853C50.5225 50.0431 35.1761 70.2216 26.7859 94.7827C21.6512 108.227 -0.709068 177.963 62.3908 234.683C74.1932 246.795 87.4049 253.719 104.004 256.506C107.07 255.158 110.07 252.839 112.922 249.616C113.606 248.613 114.381 247.626 115.337 246.458C115.37 246.417 115.403 246.376 115.436 246.335C115.625 246.096 115.872 245.784 116.111 245.48L116.219 245.34C117.447 243.531 118.23 242.108 118.51 241.582C119.4 239.716 120.133 237.602 120.661 235.366C120.669 235.316 120.686 235.267 120.71 235.218C123.612 225.49 121.535 216.306 120.101 211.833C114.57 224.142 101.721 227.776 97.6743 228.631C95.5809 229.043 93.5287 229.281 91.3775 229.372C80.2345 229.807 69.4706 226.395 60.2644 219.496C60.2314 219.471 60.1985 219.447 60.1737 219.422C33.4371 194.729 30.5194 159.347 30.2063 152.292C30.1486 152.152 30.1073 152.004 30.1073 151.848C29.5963 132.689 34.3107 117.51 34.3519 117.362C47.1516 73.8724 81.4213 56.4897 91.7072 52.1728C92.721 51.6383 93.5287 51.3341 94.188 51.2272C94.7567 51.1285 95.3254 51.4739 95.4902 52.033C95.6551 52.5921 95.3913 53.1842 94.8638 53.4309C94.6908 53.5131 77.3086 61.67 62.1271 79.9243C48.1818 96.6904 33.2887 125.659 41.3987 168.573C41.4647 168.705 41.5059 168.844 41.5141 169.001C41.5224 169.214 41.5306 169.42 41.5388 169.626C41.5471 169.823 41.5553 170.02 41.5636 170.226C41.918 171.607 45.3713 184.657 51.6599 196.719C51.6928 196.777 51.7176 196.834 51.7341 196.892C52.039 197.492 53.1269 199.622 54.6105 202.023C52.3604 193.981 52.5665 186.466 53.3 181.047C54.6847 171.303 58.4842 162.957 64.5914 156.231C73.3525 146.577 94.5095 134.416 111.512 124.639C115.518 122.337 119.293 120.166 122.598 118.201C131.697 112.807 139.741 105.957 145.865 98.4007C150.472 91.395 151.346 84.8086 152.194 78.4443C152.318 77.4822 152.45 76.5284 152.59 75.5745C153.225 71.2247 155.335 67.245 157.131 64.5397C156.019 65.1729 154.914 65.9047 153.777 66.6529C151.519 68.1412 149.178 69.6789 146.409 70.7643C143.598 71.8661 139.609 72.5157 135.686 72.5157C135.612 72.5322 135.513 72.5486 135.455 72.5404C135.34 72.5404 135.233 72.5321 135.117 72.5239C135.068 72.5239 135.027 72.5157 134.977 72.5157C134.211 72.4993 133.444 72.4581 132.628 72.3759L132.307 72.3595C130.386 72.1539 128.68 71.7674 127.222 71.2083C116.491 67.6068 112.155 57.9533 111.974 57.5422C111.974 57.534 111.966 57.5258 111.958 57.5093C108.479 50.4543 109.073 43.8432 109.106 43.5636C109.164 42.9881 109.633 42.544 110.21 42.5111C110.779 42.4947 111.298 42.8812 111.414 43.4485C112.015 46.5074 113.087 49.3113 114.694 52.0166C114.768 52.1481 114.817 52.2879 114.842 52.4359C115.897 54.5245 122.796 66.6283 139.955 64.5973C140.005 64.589 140.046 64.589 140.104 64.589C140.17 64.589 140.235 64.589 140.301 64.5973C140.54 64.5644 141.307 64.4657 142.362 64.2766C142.37 64.2766 142.37 64.2766 142.378 64.2766C142.387 64.2766 142.395 64.2766 142.395 64.2766C144.571 63.8819 148.683 62.9609 151.782 61.2506L152.087 61.0697C152.359 60.9135 152.623 60.7491 152.878 60.5846L153.043 60.4777C162.109 54.2943 164.071 45.052 164.096 44.9615C164.137 44.7559 164.236 44.5586 164.384 44.4024C165.678 43.0045 166.865 40.9159 167.903 38.2025C167.928 38.1285 167.961 38.0627 168.002 37.9969C172.552 28.6806 172.799 19.685 172.568 15.2776C170.524 17.58 167.928 19.833 166.305 21.1651C166.181 21.272 166.033 21.346 165.876 21.3871C165.431 21.5104 164.945 21.6091 164.401 21.6913C163.914 21.7571 163.461 21.5351 163.222 21.124C162.983 20.7128 163.016 20.1948 163.313 19.8166C168.53 13.1726 171.283 5.82156 172.23 2.92717C161.425 1.52932 155.318 3.05051 154.634 3.23141ZM146.738 31.9779C142.213 31.9779 139.345 28.8697 138.422 25.3093C137.268 20.8608 139.032 15.3352 144.587 13.8469C147.999 12.9342 151.074 13.6413 153.241 15.8286C155.615 18.2214 156.563 22.16 155.59 25.6135C154.733 28.6724 152.516 30.8596 149.524 31.6161C148.535 31.8628 147.604 31.9779 146.738 31.9779ZM147.414 15.7957C146.714 15.7957 145.964 15.9026 145.181 16.1081C141.084 17.2017 139.799 21.3706 140.672 24.7337C141.422 27.6363 144.035 30.5883 148.939 29.3631C151.898 28.623 152.961 26.3125 153.324 24.9968C154.074 22.3162 153.365 19.2903 151.568 17.4731C150.472 16.3548 149.062 15.7957 147.414 15.7957Z" fill="#E3EDFB"/>
</svg>
