<svg width="147" height="118" viewBox="0 0 147 118" fill="none" xmlns="http://www.w3.org/2000/svg">
<g opacity="0.8" clip-path="url(#clip0_1003_3754)">
<path d="M50.7249 118C43.0803 118 35.9135 117.204 29.6226 115.693C-3.02641 107.497 -0.000404812 80.6825 0.0792268 80.4438C7.08681 35.1694 52.4768 3.42158 54.8658 1.75065C60.6789 -2.70519 77.6404 1.27323 106.547 13.9246L106.706 14.0042C107.343 14.2429 108.139 14.5612 109.175 14.959C118.093 18.46 138.877 26.8147 145.168 43.7628C148.433 52.4357 147.318 62.1431 141.903 72.5666C132.825 90.0716 114.43 103.996 90.1426 111.794C77.3219 115.931 63.3864 118 50.7249 118ZM61.7141 3.50115C59.0066 3.50115 57.6529 4.05813 57.0158 4.53554L56.9362 4.61511C56.4584 4.93338 10.4313 36.9995 3.58302 80.9212C3.50339 81.8761 0.955175 104.871 30.4985 112.192C36.4709 113.703 43.4785 114.42 50.8842 114.42C82.498 114.42 123.19 100.734 138.718 70.8956C143.655 61.427 144.69 52.6744 141.824 44.9563C136.09 29.52 116.262 21.6428 107.821 18.3009C106.786 17.903 105.91 17.5052 105.273 17.2665L105.113 17.1869C79.7109 6.12691 67.5272 3.50115 61.7141 3.50115Z" fill="#E3EDFB"/>
<path d="M67.687 35.2488C65.7758 35.2488 64.0239 35.0896 62.7498 34.8509C61.7942 34.6122 61.1572 33.737 61.3961 32.7821C61.5553 31.8273 62.5109 31.1908 63.4665 31.4295C66.8907 32.1456 75.7298 31.9069 81.1447 28.9629C87.4356 25.5414 87.2764 19.5738 87.2764 19.3351C87.1967 18.3803 87.993 17.505 88.9486 17.505C89.9042 17.4254 90.7802 18.2211 90.8598 19.1759C90.8598 19.4942 91.2579 27.5306 82.8966 32.1456C78.6761 34.2939 72.5445 35.2488 67.687 35.2488Z" fill="#E3EDFB"/>
<path d="M56.5374 47.2636C53.9892 47.2636 51.3614 47.184 48.5742 47.0249C47.6187 46.9453 46.8224 46.1496 46.902 45.1152C46.9816 44.1604 47.8576 43.3647 48.8131 43.4443C71.9063 44.9561 84.3288 39.4659 90.6994 34.6122C97.4681 29.4402 98.9811 23.8704 98.9811 23.7909C99.22 22.8361 100.176 22.2791 101.131 22.5178C102.087 22.7565 102.644 23.7113 102.405 24.6661C102.166 25.7005 96.4329 47.2636 56.5374 47.2636Z" fill="#E3EDFB"/>
<path d="M92.6898 46.2293C92.0528 46.2293 91.4157 45.8315 91.0972 45.1949C90.6991 44.3197 91.0176 43.2057 91.8935 42.8079C106.307 35.8854 107.74 24.348 107.82 23.8706C107.899 22.9158 108.775 22.1997 109.811 22.2792C110.766 22.3588 111.483 23.2341 111.403 24.2684C111.324 24.8254 109.731 38.1929 93.4862 45.9906C93.1676 46.2293 92.9287 46.2293 92.6898 46.2293Z" fill="#E3EDFB"/>
<path d="M46.7423 57.0507C34.5587 57.0507 25.7992 52.5153 25.3214 52.2766C24.4455 51.7992 24.127 50.7648 24.6047 49.8895C25.0825 49.0143 26.1177 48.696 26.9937 49.1734C27.153 49.253 41.2478 56.4937 57.8111 52.197C58.7667 51.9583 59.7223 52.5153 59.9612 53.4701C60.2001 54.4249 59.6427 55.3798 58.6871 55.6185C54.4666 56.6529 50.485 57.0507 46.7423 57.0507Z" fill="#E3EDFB"/>
<path d="M46.663 67.9514C41.1684 67.9514 36.072 67.474 31.533 66.5192C30.5774 66.2805 29.9404 65.4053 30.1793 64.3709C30.4182 63.416 31.2941 62.7795 32.3293 63.0182C52.9539 67.3945 88.9474 60.3129 104.953 48.7754C121.756 36.6015 120.083 23.8705 120.083 23.791C119.924 22.8361 120.641 21.8813 121.596 21.8017C122.552 21.6426 123.508 22.3587 123.587 23.3135C123.667 23.9501 125.498 38.2724 106.944 51.7195C93.4864 61.4268 67.6858 67.9514 46.663 67.9514Z" fill="#E3EDFB"/>
<path d="M50.0876 78.2954C46.9023 78.2954 43.5578 78.1362 40.054 77.818C15.1293 75.59 7.88279 58.5624 7.6439 57.8463C7.24574 56.971 7.72353 55.8571 8.59947 55.5388C9.47542 55.141 10.5106 55.6184 10.9088 56.4936C11.1477 57.1302 17.6775 72.2482 40.3725 74.317C63.7046 76.4653 80.7457 70.0203 80.9846 70.0203C81.9402 69.702 82.8958 70.0998 83.2939 71.0546C83.6921 72.0095 83.2143 72.9643 82.2587 73.3621C81.6217 73.5213 68.8806 78.2954 50.0876 78.2954Z" fill="#E3EDFB"/>
<path d="M45.0699 87.3662C19.8266 87.3662 8.1208 73.9191 7.56337 73.2826C6.92632 72.5665 7.00595 71.3729 7.80227 70.7364C8.51895 70.0998 9.71343 70.1794 10.3505 70.9751C10.5097 71.2138 24.2064 86.6501 53.3516 83.3878C54.3071 83.3082 55.1831 83.9447 55.3424 84.9791C55.422 85.934 54.7849 86.8092 53.7497 86.9683C50.6441 87.207 47.7773 87.3662 45.0699 87.3662Z" fill="#E3EDFB"/>
<path d="M91.576 76.7835C90.8593 76.7835 90.1426 76.3061 89.9037 75.59C89.5852 74.6351 90.063 73.6803 90.9389 73.2825C115.704 64.2912 125.34 43.4443 125.419 43.2056C125.818 42.3304 126.853 41.9325 127.808 42.3304C128.684 42.7282 129.082 43.7626 128.684 44.7174C128.286 45.5927 118.412 67.0761 92.213 76.6244C91.9741 76.7039 91.8149 76.7835 91.576 76.7835Z" fill="#E3EDFB"/>
<path d="M50.326 96.4371C32.4089 96.4371 21.9772 91.4242 20.1457 90.4694C19.2697 89.992 18.9512 88.9576 19.429 88.0824C19.9068 87.2071 20.942 86.8888 21.8179 87.3663C24.7643 88.8781 51.6798 101.689 97.468 82.5126C118.013 73.8396 127.489 61.5065 131.789 52.6744C136.408 43.1262 136.249 35.4081 136.249 35.3285C136.249 34.3737 136.965 33.4984 138 33.4984C138.956 33.4188 139.832 34.2145 139.832 35.1694C139.832 35.4876 140.071 43.6036 135.134 53.9475C130.595 63.4162 120.641 76.6245 98.9013 85.6953C79.312 93.9704 62.9875 96.4371 50.326 96.4371Z" fill="#E3EDFB"/>
<path d="M52.6352 106.462C32.5681 106.462 18.6325 99.8583 17.7566 99.4605C16.8806 99.0626 16.4825 97.9487 16.9603 97.0734C17.3584 96.1982 18.4733 95.8003 19.3492 96.2777C19.6677 96.4369 49.1314 110.361 83.8508 97.153C84.8064 96.8347 85.762 97.2325 86.1602 98.1874C86.4787 99.1422 86.0805 100.097 85.1249 100.495C73.4191 104.951 62.2707 106.462 52.6352 106.462Z" fill="#E3EDFB"/>
</g>
<defs>
<clipPath id="clip0_1003_3754">
<rect width="147" height="118" fill="white"/>
</clipPath>
</defs>
</svg>
