<svg width="1920" height="1151" viewBox="0 0 1920 1151" fill="none" xmlns="http://www.w3.org/2000/svg">
<path d="M240 0C120 0 120 16.8863 0 16.8863L0 1151H1920V16.8863C1800 16.8863 1800 0 1680 0C1560 0 1560 16.8863 1440 16.8863C1320 16.8863 1320 0 1200 0C1080 0 1080 16.8863 960 16.8863C840 16.8863 840 0 720 0C600 0 600 16.8863 480 16.8863C360 16.8863 360 0 240 0Z" fill="white" fill-opacity="0.5"/>
<path d="M240 8.44315C120 8.44315 120 25.3295 0 25.3295L0 1151H1920V25.3295C1800 25.3295 1800 8.44315 1680 8.44315C1560 8.44315 1560 25.3295 1440 25.3295C1320 25.3295 1320 8.44315 1200 8.44315C1080 8.44315 1080 25.3295 960 25.3295C840 25.3295 840 8.44315 720 8.44315C600 8.44315 600 25.3295 480 25.3295C360 25.3295 360 8.44315 240 8.44315Z" fill="#F1F6FD"/>
</svg>
