<svg width="1920" height="170" viewBox="0 0 1920 170" fill="none" xmlns="http://www.w3.org/2000/svg">
<g opacity="0.5" clip-path="url(#clip0_1003_2690)">
<path d="M-1680 0C-1800 0 -1800 20 -1920 20V160H1920V20C1800 20 1800 0 1680 0C1560 0 1560 20 1440 20C1320 20 1320 0 1200 0C1080 0 1080 20 960 20C840 20 840 0 720 0C600 0 600 20 480 20C360 20 360 0 240 0C120 0 120 20 0 20C-120 20 -120 0 -240 0C-360 0 -360 20 -480 20C-600 20 -600 0 -720 0C-840 0 -840 20 -960 20C-1080 20 -1080 0 -1200 0C-1320 0 -1320 20 -1440 20C-1560 20 -1560 0 -1680 0Z" fill="white"/>
</g>
<g clip-path="url(#clip1_1003_2690)">
<path d="M240 10C120 10 120 30 0 30V170H3840V30C3720 30 3720 10 3600 10C3480 10 3480 30 3360 30C3240 30 3240 10 3120 10C3000 10 3000 30 2880 30C2760 30 2760 10 2640 10C2520 10 2520 30 2400 30C2280 30 2280 10 2160 10C2040 10 2040 30 1920 30C1800 30 1800 10 1680 10C1560 10 1560 30 1440 30C1320 30 1320 10 1200 10C1080 10 1080 30 960 30C840 30 840 10 720 10C600 10 600 30 480 30C360 30 360 10 240 10Z" fill="white"/>
</g>
<defs>
<clipPath id="clip0_1003_2690">
<rect width="1920" height="160" fill="white"/>
</clipPath>
<clipPath id="clip1_1003_2690">
<rect width="1920" height="160" fill="white" transform="translate(0 10)"/>
</clipPath>
</defs>
</svg>
